<svg xmlns="http://www.w3.org/2000/svg" viewBox="0 0 1000 1000"><line x1="-3.3500000000000005" y1="-7.390000000000001" x2="-2.8600000000000003" y2="-7.37" stroke="black" />
<line x1="-3.1000000000000005" y1="-7.42" x2="-2.99" y2="-7.42" stroke="black" />
<line x1="-3.6500000000000004" y1="-7.449999999999999" x2="-3.5300000000000002" y2="-7.449999999999999" stroke="black" />
<line x1="-8.31" y1="-9.3" x2="-8.15" y2="-9.76" stroke="black" />
<line x1="-5.61" y1="-6.3" x2="-5.61" y2="-6.47" stroke="black" />
<line x1="-2.09" y1="-7.88" x2="-1.7800000000000002" y2="-7.87" stroke="black" />
<line x1="-1.5" y1="-7.890000000000001" x2="-1.2800000000000002" y2="-7.88" stroke="black" />
<line x1="-2.5500000000000007" y1="-7.4" x2="-2.34" y2="-7.390000000000001" stroke="black" />
<line x1="-0.5" y1="-8.69" x2="-0.5" y2="-8.92" stroke="black" />
<line x1="-1.0700000000000003" y1="-8.7" x2="-1.0300000000000002" y2="-9.27" stroke="black" />
<line x1="-2.7800000000000002" y1="-7.359999999999999" x2="-2.1500000000000004" y2="-7.33" stroke="black" />
<line x1="-2.8600000000000003" y1="-7.96" x2="-2.8500000000000005" y2="-8.27" stroke="black" />
<line x1="-2.7700000000000005" y1="-9.04" x2="-2.7600000000000007" y2="-9.32" stroke="black" />
<line x1="-0.9100000000000001" y1="-7.279999999999999" x2="-0.5999999999999996" y2="-7.26" stroke="black" />
<line x1="-2.33" y1="-7.38" x2="-1.8600000000000003" y2="-7.359999999999999" stroke="black" />
<line x1="-4.140000000000001" y1="-5.8999999999999995" x2="-4.11" y2="-6.49" stroke="black" />
<line x1="-1.9900000000000002" y1="-7.32" x2="-1.54" y2="-7.29" stroke="black" />
<line x1="-2.83" y1="-8.66" x2="-2.8000000000000007" y2="-9.41" stroke="black" />
<line x1="-8.34" y1="-7.01" x2="-7.0600000000000005" y2="-6.57" stroke="black" />
<line x1="-4.82" y1="-9.5" x2="-4.260000000000001" y2="-9.48" stroke="black" />
<line x1="-5.620000000000001" y1="-6.09" x2="-5.61" y2="-6.29" stroke="black" />
<line x1="-4.1000000000000005" y1="-6.859999999999999" x2="-4.07" y2="-7.23" stroke="black" />
<line x1="-2.6800000000000006" y1="-7.96" x2="-1.7700000000000005" y2="-7.91" stroke="black" />
<line x1="-8.97" y1="-7.46" x2="-8.530000000000001" y2="-8.72" stroke="black" />
<line x1="-8.9" y1="-7.59" x2="-8.700000000000001" y2="-8.15" stroke="black" />
<line x1="-7.84" y1="-6.87" x2="-6.69" y2="-6.4799999999999995" stroke="black" />
<line x1="-5.880000000000001" y1="-8.03" x2="-5.470000000000001" y2="-7.890000000000001" stroke="black" />
<line x1="-5.630000000000001" y1="-6.640000000000001" x2="-5.630000000000001" y2="-6.93" stroke="black" />
<line x1="-2.7800000000000002" y1="-8.73" x2="-2.7800000000000002" y2="-8.91" stroke="black" />
<line x1="-5.51" y1="-7.51" x2="-5.49" y2="-7.779999999999999" stroke="black" />
<line x1="-4.5200000000000005" y1="-9.53" x2="-4.24" y2="-9.52" stroke="black" />
<line x1="-5.61" y1="-5.95" x2="-5.34" y2="-5.9399999999999995" stroke="black" />
<line x1="-1.08" y1="-7.97" x2="-1.0499999999999998" y2="-8.64" stroke="black" />
<line x1="-1.7700000000000005" y1="-7.859999999999999" x2="-1.0700000000000003" y2="-7.82" stroke="black" />
<line x1="-6.8500000000000005" y1="-8.32" x2="-6.1000000000000005" y2="-8.07" stroke="black" />
<line x1="-8.89" y1="-7.359999999999999" x2="-8.14" y2="-7.82" stroke="black" />
<line x1="-0.45000000000000107" y1="-7.71" x2="-0.4399999999999995" y2="-7.3" stroke="black" />
<line x1="-0.5400000000000009" y1="-7.390000000000001" x2="-0.5199999999999996" y2="-7.8" stroke="black" />
<line x1="-6.92" y1="-8.23" x2="-6.44" y2="-8.07" stroke="black" />
<line x1="-7.2700000000000005" y1="-6.65" x2="-6.73" y2="-6.46" stroke="black" />
<line x1="-4.15" y1="-6.37" x2="-4.140000000000001" y2="-6.6" stroke="black" />
<line x1="-5.57" y1="-7.25" x2="-5.5600000000000005" y2="-7.38" stroke="black" />
<line x1="-0.5199999999999996" y1="-7.87" x2="-0.5199999999999996" y2="-7.97" stroke="black" />
<line x1="-2.7200000000000006" y1="-9.86" x2="-2.71" y2="-10.05" stroke="black" />
<line x1="-1.7600000000000007" y1="-7.9" x2="-1.5100000000000007" y2="-7.9" stroke="black" />
<line x1="-6.470000000000001" y1="-8.219999999999999" x2="-6.210000000000001" y2="-8.129999999999999" stroke="black" />
<line x1="-1.5300000000000002" y1="-7.33" x2="-1.2600000000000007" y2="-7.32" stroke="black" />
<line x1="-7.8100000000000005" y1="-10.42" x2="-7.65" y2="-9.5" stroke="black" />
<line x1="-6.050000000000001" y1="-9.68" x2="-5.95" y2="-9.67" stroke="black" />
<line x1="-4.220000000000001" y1="-9.52" x2="-3.96" y2="-9.51" stroke="black" />
<line x1="-8.42" y1="-8.95" x2="-8.27" y2="-9.4" stroke="black" />
<line x1="-4.8100000000000005" y1="-5.91" x2="-4.67" y2="-5.8999999999999995" stroke="black" />
<line x1="-5.620000000000001" y1="-6.9399999999999995" x2="-5.620000000000001" y2="-7.08" stroke="black" />
<line x1="-5.550000000000001" y1="-7.46" x2="-5.540000000000001" y2="-7.73" stroke="black" />
<line x1="-4.24" y1="-9.48" x2="-3.9700000000000006" y2="-9.46" stroke="black" />
<line x1="-8.31" y1="-7.1899999999999995" x2="-8.110000000000001" y2="-7.77" stroke="black" />
<line x1="-5.66" y1="-6.04" x2="-5.630000000000001" y2="-6.54" stroke="black" />
<line x1="-0.45000000000000107" y1="-8.01" x2="-0.45000000000000107" y2="-7.890000000000001" stroke="black" />
<line x1="-6.890000000000001" y1="-8.370000000000001" x2="-6.42" y2="-8.21" stroke="black" />
<line x1="-8.23" y1="-8.67" x2="-7.7" y2="-8.5" stroke="black" />
<line x1="-5.32" y1="-9.53" x2="-4.83" y2="-9.5" stroke="black" />
<line x1="-2.87" y1="-7.41" x2="-2.6800000000000006" y2="-7.41" stroke="black" />
<line x1="-3.8500000000000005" y1="-9.65" x2="-3.83" y2="-9.93" stroke="black" />
<line x1="-3.79" y1="-10.1" x2="-3.5100000000000007" y2="-10.09" stroke="black" />
<line x1="-8.34" y1="-8.96" x2="-8.22" y2="-9.379999999999999" stroke="black" />
<line x1="-3.74" y1="-10.05" x2="-3.62" y2="-10.05" stroke="black" />
<line x1="-3.04" y1="-10.06" x2="-2.8100000000000005" y2="-10.05" stroke="black" />
<line x1="-6.32" y1="-9.83" x2="-5.73" y2="-9.65" stroke="black" />
<line x1="-5.94" y1="-9.66" x2="-5.6000000000000005" y2="-9.54" stroke="black" />
<line x1="-0.4299999999999997" y1="-9.17" x2="-0.4299999999999997" y2="-9.27" stroke="black" />
<line x1="-4.890000000000001" y1="-9.54" x2="-4.53" y2="-9.54" stroke="black" />
<line x1="-4.66" y1="-5.88" x2="-4.5200000000000005" y2="-5.88" stroke="black" />
<line x1="-8.290000000000001" y1="-7.02" x2="-7.790000000000001" y2="-6.85" stroke="black" />
<line x1="-8.68" y1="-8.28" x2="-8.52" y2="-8.74" stroke="black" />
<line x1="-4.12" y1="-7.01" x2="-4.090000000000001" y2="-7.48" stroke="black" />
<line x1="-2.8000000000000007" y1="-8.32" x2="-2.8000000000000007" y2="-8.42" stroke="black" />
<line x1="-5.9" y1="-7.96" x2="-5.78" y2="-7.92" stroke="black" />
<line x1="-1.33" y1="-7.26" x2="-1.04" y2="-7.24" stroke="black" />
<line x1="-8.4" y1="-7.71" x2="-8.030000000000001" y2="-7.9399999999999995" stroke="black" />
<line x1="-2.75" y1="-9.33" x2="-2.75" y2="-9.48" stroke="black" />
<line x1="-0.5099999999999998" y1="-8.02" x2="-0.5" y2="-8.219999999999999" stroke="black" />
<line x1="-1.8500000000000005" y1="-7.35" x2="-1.54" y2="-7.34" stroke="black" />
<line x1="-6.69" y1="-6.47" x2="-6.67" y2="-6.87" stroke="black" />
<line x1="-5.59" y1="-8.96" x2="-5.390000000000001" y2="-9.54" stroke="black" />
<line x1="-6.68" y1="-7.17" x2="-6.67" y2="-7.4" stroke="black" />
<line x1="-5.6000000000000005" y1="-6.609999999999999" x2="-5.58" y2="-6.87" stroke="black" />
<line x1="-3.3100000000000005" y1="-7.4399999999999995" x2="-3.1100000000000003" y2="-7.43" stroke="black" />
<line x1="-7.010000000000001" y1="-8.370000000000001" x2="-6.86" y2="-8.32" stroke="black" />
<line x1="-0.46000000000000085" y1="-8.52" x2="-0.46000000000000085" y2="-8.39" stroke="black" />
<line x1="-3.87" y1="-7.41" x2="-3.3600000000000003" y2="-7.4" stroke="black" />
<line x1="-1.0200000000000005" y1="-9.28" x2="-1.0200000000000005" y2="-9.46" stroke="black" />
<line x1="-8.71" y1="-8.1" x2="-8.530000000000001" y2="-8.629999999999999" stroke="black" />
<line x1="-4.0600000000000005" y1="-7.57" x2="-4.050000000000001" y2="-7.67" stroke="black" />
<line x1="-8.21" y1="-9.41" x2="-8.110000000000001" y2="-9.78" stroke="black" />
<line x1="-0.5400000000000009" y1="-9.72" x2="-0.5300000000000011" y2="-9.59" stroke="black" />
<line x1="-1.04" y1="-8.77" x2="-1.0200000000000005" y2="-9.0" stroke="black" />
<line x1="-0.8100000000000005" y1="-9.82" x2="-0.6500000000000004" y2="-9.81" stroke="black" />
<line x1="-5.33" y1="-5.9399999999999995" x2="-5.120000000000001" y2="-5.93" stroke="black" />
<line x1="-1.12" y1="-7.9399999999999995" x2="-1.0899999999999999" y2="-8.379999999999999" stroke="black" />
<line x1="-3.96" y1="-9.46" x2="-3.83" y2="-9.46" stroke="black" />
</svg>