<svg xmlns="http://www.w3.org/2000/svg" viewBox="0 0 1000 1000"><line x1="-5.53" y1="-8.41" x2="-4.62" y2="-8.74" stroke="black" />
<line x1="-4.38" y1="-8.78" x2="-3.49" y2="-9.09" stroke="black" />
<line x1="-4.340000000000001" y1="-8.84" x2="-3.49" y2="-9.14" stroke="black" />
<line x1="-4.260000000000001" y1="-6.01" x2="-4.090000000000001" y2="-6.06" stroke="black" />
<line x1="-8.940000000000001" y1="-7.22" x2="-8.26" y2="-7.449999999999999" stroke="black" />
<line x1="-5.7" y1="-7.74" x2="-5.0600000000000005" y2="-7.98" stroke="black" />
<line x1="-6.01" y1="-8.23" x2="-5.26" y2="-8.48" stroke="black" />
<line x1="-8.27" y1="-7.4399999999999995" x2="-6.3100000000000005" y2="-8.15" stroke="black" />
<line x1="-8.73" y1="-7.25" x2="-8.48" y2="-7.34" stroke="black" />
<line x1="-6.800000000000001" y1="-7.9399999999999995" x2="-6.3500000000000005" y2="-8.1" stroke="black" />
<line x1="-8.07" y1="-4.7" x2="-6.380000000000001" y2="-5.28" stroke="black" />
<line x1="-8.24" y1="-7.43" x2="-8.1" y2="-7.48" stroke="black" />
<line x1="0.4599999999999991" y1="-10.31" x2="1.129999999999999" y2="-10.35" stroke="black" />
<line x1="-7.930000000000001" y1="-7.54" x2="-6.68" y2="-7.97" stroke="black" />
<line x1="-4.94" y1="-7.63" x2="-4.33" y2="-6.11" stroke="black" />
<line x1="-1.4400000000000004" y1="-8.53" x2="-1.3100000000000005" y2="-8.56" stroke="black" />
<line x1="-2.08" y1="-10.12" x2="-1.8500000000000005" y2="-10.14" stroke="black" />
<line x1="0.4399999999999995" y1="-10.34" x2="1.25" y2="-10.41" stroke="black" />
<line x1="-6.24" y1="-7.51" x2="-6.140000000000001" y2="-7.529999999999999" stroke="black" />
<line x1="-6.48" y1="-6.82" x2="-5.99" y2="-5.46" stroke="black" />
<line x1="-4.75" y1="-7.27" x2="-4.37" y2="-6.3" stroke="black" />
<line x1="1.3100000000000005" y1="-10.36" x2="1.5299999999999994" y2="-10.38" stroke="black" />
<line x1="-2.8100000000000005" y1="-9.53" x2="-2.2" y2="-9.56" stroke="black" />
<line x1="0.5899999999999999" y1="-8.8" x2="1.549999999999999" y2="-8.879999999999999" stroke="black" />
<line x1="-6.720000000000001" y1="-7.37" x2="-6.08" y2="-5.6" stroke="black" />
<line x1="0.9100000000000001" y1="-8.79" x2="1.58" y2="-8.85" stroke="black" />
<line x1="-3.88" y1="-7.77" x2="-3.3900000000000006" y2="-7.9399999999999995" stroke="black" />
<line x1="-2.37" y1="-8.35" x2="-2.2700000000000005" y2="-8.370000000000001" stroke="black" />
<line x1="-2.87" y1="-8.219999999999999" x2="-2.74" y2="-8.26" stroke="black" />
<line x1="-6.710000000000001" y1="-7.38" x2="-6.5200000000000005" y2="-7.42" stroke="black" />
<line x1="-8.48" y1="-7.35" x2="-8.33" y2="-7.4" stroke="black" />
<line x1="-8.52" y1="-6.13" x2="-8.38" y2="-6.18" stroke="black" />
<line x1="-7.210000000000001" y1="-4.96" x2="-7.050000000000001" y2="-5.01" stroke="black" />
<line x1="-6.24" y1="-5.31" x2="-6.03" y2="-5.39" stroke="black" />
<line x1="-2.71" y1="-8.26" x2="-2.59" y2="-8.28" stroke="black" />
<line x1="-8.92" y1="-7.15" x2="-8.67" y2="-6.45" stroke="black" />
<line x1="-6.5" y1="-8.08" x2="-5.9" y2="-8.29" stroke="black" />
<line x1="-2.63" y1="-9.59" x2="-2.17" y2="-9.62" stroke="black" />
<line x1="-2.96" y1="-8.26" x2="-2.7700000000000005" y2="-8.31" stroke="black" />
<line x1="-1.3500000000000005" y1="-10.13" x2="-1.0200000000000005" y2="-10.15" stroke="black" />
<line x1="-0.07000000000000028" y1="-9.08" x2="0.0600000000000005" y2="-9.12" stroke="black" />
<line x1="-5.95" y1="-8.27" x2="-5.24" y2="-8.52" stroke="black" />
<line x1="-0.2400000000000002" y1="-8.77" x2="-0.08000000000000007" y2="-8.81" stroke="black" />
<line x1="-2.2800000000000002" y1="-8.31" x2="-2.08" y2="-8.34" stroke="black" />
<line x1="-3.8600000000000003" y1="-7.83" x2="-3.3500000000000005" y2="-8.02" stroke="black" />
<line x1="-1.0100000000000007" y1="-10.21" x2="-0.7900000000000009" y2="-10.22" stroke="black" />
<line x1="-2.9700000000000006" y1="-8.19" x2="-2.83" y2="-8.23" stroke="black" />
<line x1="-3.12" y1="-8.14" x2="-3.0100000000000007" y2="-8.16" stroke="black" />
<line x1="-6.0600000000000005" y1="-7.55" x2="-5.94" y2="-7.57" stroke="black" />
<line x1="-1.8399999999999999" y1="-10.14" x2="-1.7000000000000002" y2="-10.15" stroke="black" />
<line x1="-6.220000000000001" y1="-7.55" x2="-6.1000000000000005" y2="-7.58" stroke="black" />
<line x1="-3.8900000000000006" y1="-7.8" x2="-3.7600000000000007" y2="-7.46" stroke="black" />
<line x1="-2.7300000000000004" y1="-8.31" x2="-2.62" y2="-8.33" stroke="black" />
<line x1="-7.040000000000001" y1="-5.01" x2="-6.33" y2="-5.26" stroke="black" />
<line x1="-0.33999999999999986" y1="-10.08" x2="-0.019999999999999574" y2="-10.05" stroke="black" />
<line x1="-6.94" y1="-5.08" x2="-6.68" y2="-5.17" stroke="black" />
<line x1="1.5099999999999998" y1="-10.42" x2="1.879999999999999" y2="-10.45" stroke="black" />
<line x1="-0.22000000000000064" y1="-8.73" x2="-0.0600000000000005" y2="-8.76" stroke="black" />
<line x1="-8.77" y1="-6.640000000000001" x2="-8.700000000000001" y2="-6.4799999999999995" stroke="black" />
<line x1="-3.6800000000000006" y1="-7.32" x2="-3.54" y2="-6.92" stroke="black" />
<line x1="-0.22000000000000064" y1="-8.74" x2="-0.0600000000000005" y2="-8.77" stroke="black" />
<line x1="-1.0499999999999998" y1="-8.59" x2="-0.8000000000000007" y2="-8.64" stroke="black" />
<line x1="-3.1400000000000006" y1="-8.2" x2="-2.99" y2="-8.24" stroke="black" />
<line x1="-6.130000000000001" y1="-7.54" x2="-6.0200000000000005" y2="-7.5600000000000005" stroke="black" />
<line x1="-0.5400000000000009" y1="-9.3" x2="-0.4900000000000002" y2="-8.68" stroke="black" />
<line x1="-7.95" y1="-4.6899999999999995" x2="-7.680000000000001" y2="-4.79" stroke="black" />
<line x1="1.5399999999999991" y1="-10.37" x2="1.6899999999999995" y2="-10.38" stroke="black" />
<line x1="-3.1400000000000006" y1="-9.5" x2="-2.8200000000000003" y2="-9.52" stroke="black" />
<line x1="-3.66" y1="-7.22" x2="-3.5700000000000003" y2="-6.91" stroke="black" />
<line x1="1.6799999999999997" y1="-9.77" x2="2.2300000000000004" y2="-9.77" stroke="black" />
<line x1="-4.8100000000000005" y1="-7.43" x2="-4.5600000000000005" y2="-6.76" stroke="black" />
<line x1="0.6699999999999999" y1="-8.77" x2="0.7799999999999994" y2="-8.77" stroke="black" />
<line x1="-2.0" y1="-10.19" x2="-1.8600000000000003" y2="-10.19" stroke="black" />
<line x1="-3.0100000000000007" y1="-8.17" x2="-2.91" y2="-8.2" stroke="black" />
<line x1="-7.760000000000001" y1="-4.77" x2="-7.08" y2="-5.01" stroke="black" />
<line x1="-5.470000000000001" y1="-7.779999999999999" x2="-5.19" y2="-7.87" stroke="black" />
<line x1="-4.98" y1="-8.56" x2="-4.4" y2="-8.76" stroke="black" />
<line x1="-0.3200000000000003" y1="-10.12" x2="0.11999999999999922" y2="-10.07" stroke="black" />
<line x1="-4.0200000000000005" y1="-6.12" x2="-3.3900000000000006" y2="-6.35" stroke="black" />
<line x1="-1.25" y1="-8.72" x2="-1.12" y2="-8.72" stroke="black" />
<line x1="-0.620000000000001" y1="-9.39" x2="-0.5600000000000005" y2="-8.77" stroke="black" />
<line x1="-5.18" y1="-8.54" x2="-4.71" y2="-8.71" stroke="black" />
<line x1="-2.54" y1="-8.28" x2="-2.42" y2="-8.3" stroke="black" />
<line x1="-1.21" y1="-10.2" x2="-1.0700000000000003" y2="-10.2" stroke="black" />
<line x1="-0.4299999999999997" y1="-8.9" x2="-0.33000000000000007" y2="-8.92" stroke="black" />
<line x1="-7.800000000000001" y1="-7.07" x2="-7.59" y2="-7.13" stroke="black" />
<line x1="-0.25" y1="-8.79" x2="-0.14000000000000057" y2="-8.81" stroke="black" />
<line x1="1.4900000000000002" y1="-9.72" x2="1.5099999999999998" y2="-9.51" stroke="black" />
<line x1="-3.83" y1="-6.14" x2="-3.3600000000000003" y2="-6.31" stroke="black" />
<line x1="-6.16" y1="-7.57" x2="-5.32" y2="-7.890000000000001" stroke="black" />
<line x1="-0.25" y1="-8.8" x2="-0.08999999999999986" y2="-8.83" stroke="black" />
<line x1="-8.97" y1="-7.02" x2="-8.82" y2="-6.72" stroke="black" />
<line x1="1.6199999999999992" y1="-9.03" x2="1.629999999999999" y2="-8.92" stroke="black" />
<line x1="-2.41" y1="-8.35" x2="-2.3000000000000007" y2="-8.370000000000001" stroke="black" />
<line x1="-3.24" y1="-8.16" x2="-3.08" y2="-8.21" stroke="black" />
<line x1="-3.4700000000000006" y1="-7.92" x2="-3.37" y2="-7.96" stroke="black" />
<line x1="-2.87" y1="-8.29" x2="-2.74" y2="-8.32" stroke="black" />
<line x1="-8.690000000000001" y1="-6.1" x2="-8.32" y2="-6.25" stroke="black" />
<line x1="-1.67" y1="-8.629999999999999" x2="-1.54" y2="-8.66" stroke="black" />
</svg>